# xmcd
#
# Track frame offsets: 
#        150
#        12020
#        22820
#        31944
#        39536
#        51855
#        62848
#        72517
#        81262
#        91779
#        103513
#        114894
#        125348
#        138026
#        148194
#        156527
#        166157
#        175358
#        186356
#        193794
#        205155
#        216530
#        226357
#        243937
#        255802
#        264859
#
# Disc length: 3652 seconds
#
# Revision: 0
# Processed by: cddbd v1.5.2PL0 Copyright (c) Steve Scherf et al.
# Submitted via: ExactAudioCopyFreeDBPlugin 1.0
#
DISCID=620e421a
DTITLE=Various Artist - The Best Of King and Starday Bluegrass [CD3]
DYEAR=2010
DGENRE=Bluegrass
TTITLE0=The Lewis Family - Over In Gloryland
TTITLE1=The Lewis Family - He Knew Just What To Do
TTITLE2=Flat Mountain Boys - Choo Choo
TTITLE3=Flat Mountain Boys - I Could Love You
TTITLE4=The Wright Brothers - What Can I Do
TTITLE5=The Wright Brothers - Carolina Mountain Home
TTITLE6=Bill and Mary Reid - Down In The Valley
TTITLE7=Bill and Mary Reid - I Want To Be Wanted
TTITLE8=Jim Eanes - Orchids Of Love
TTITLE9=Jim Eanes - I Wouldn't Change You If I Could
TTITLE10=Buzz Busby - Cold And Windy Night
TTITLE11=Buzz Busby - Reno Bound
TTITLE12=Bill Harrel - A Heart Never Knows
TTITLE13=Bill Harrell - Eatin' Out Of Your Hand
TTITLE14=The Kentucky Travelers - Dreaming
TTITLE15=The Kentucky Travelers - When You're Out Of My Arms
TTITLE16=The Stanley Brothers - Highway Of Regret
TTITLE17=The Stanley Brothers - A Little At A Time
TTITLE18=Charlie Moore - No Grave's Gonna Keep This Soul Of Mine
TTITLE19=Charlie Moore - Why Is Mother Buried (In A Grave So Deep)
TTITLE20=Jim and Jesse - I'm Changing The Words To My Love Song
TTITLE21=Jim and Jesse - I'll Love Nobody But You
TTITLE22=Jimmie Williams and Red Ellis - Backslider
TTITLE23=Jimmie Williams and Red Ellis - I Saw The Angels In Heaven
TTITLE24=Connie and Joe - Toil, Tears And Trouble
TTITLE25=Connie and Joe - Home Is Where The Heart Is
EXTD=
EXTT0=
EXTT1=
EXTT2=
EXTT3=
EXTT4=
EXTT5=
EXTT6=
EXTT7=
EXTT8=
EXTT9=
EXTT10=
EXTT11=
EXTT12=
EXTT13=
EXTT14=
EXTT15=
EXTT16=
EXTT17=
EXTT18=
EXTT19=
EXTT20=
EXTT21=
EXTT22=
EXTT23=
EXTT24=
EXTT25=
PLAYORDER=
